<svg width="758.67004" height="615.32637" xmlns="http://www.w3.org/2000/svg" data-name="Layer 1">
  <g>
    <title>Layer 1</title>
    <path id="svg_1" fill="#f2f2f2" d="m605.66542,112.08323c-3.94109,43.42331 -15.16888,89.21081 -32.77756,133.38965c-21.77541,54.633 -51.52607,102.75355 -86.03669,139.15916l-1.91519,-1.66994c34.34355,-36.23054 63.959,-84.13863 85.64344,-138.54566c19.59746,-49.1666 31.25383,-100.33187 33.7243,-147.9418l2.44729,0.40972q-0.38947,7.54233 -1.08559,15.19887z"/>
    <path id="svg_2" fill="#f2f2f2" d="m621.36192,364.27772c-48.47245,77.11608 -107.27981,132.21582 -165.59018,155.14809l-1.17954,-2.16253c57.90682,-22.77384 116.36982,-77.59153 164.62082,-154.3551l2.1489,1.36954z"/>
    <path id="svg_3" fill="#f2f2f2" d="m604.48895,166.14696c-3.94109,43.42331 -15.16888,89.2108 -32.77756,133.38965c-21.77537,54.63297 -51.52607,102.75357 -86.03669,139.15915l-1.91519,-1.66993c34.34355,-36.23054 63.959,-84.13863 85.64344,-138.54566c19.59746,-49.1666 31.25383,-100.33187 33.7243,-147.9418l2.44729,0.40972q-0.38952,7.54233 -1.08559,15.19887z"/>
    <path id="svg_4" fill="#e6e6e6" d="m60.32578,277.62781l-31.80371,0a4.50052,4.50052 0 0 1 -3.53467,-1.70264a4.40806,4.40806 0 0 1 -0.8628,-3.7456a86.49007,86.49007 0 0 0 -0.55517,-40.53614a4.509,4.509 0 0 1 1.74951,-4.73828c16.35352,-11.76172 29.23242,-11.42041 38.2793,1.01611a4.51934,4.51934 0 0 1 0.7915,1.90967a141.54042,141.54042 0 0 1 0.39649,43.9253a4.49088,4.49088 0 0 1 -4.46045,3.87158z"/>
    <path id="svg_5" fill="#fff" d="m50.46581,245.779l-10.94052,0a2.2811,2.2811 0 0 1 0,-4.56221l10.94052,0a2.28111,2.28111 0 0 1 0,4.56221z"/>
    <path id="svg_6" fill="#fff" d="m50.46581,253.779l-10.94052,0a2.2811,2.2811 0 0 1 0,-4.56221l10.94052,0a2.28111,2.28111 0 0 1 0,4.56221z"/>
    <path id="svg_7" fill="#fff" d="m50.46581,261.779l-10.94052,0a2.2811,2.2811 0 0 1 0,-4.56221l10.94052,0a2.28111,2.28111 0 0 1 0,4.56221z"/>
    <path id="svg_8" fill="#e6e6e6" d="m638.32578,419.62781l-31.80371,0a4.50052,4.50052 0 0 1 -3.53467,-1.70264a4.40806,4.40806 0 0 1 -0.8628,-3.7456a86.49007,86.49007 0 0 0 -0.55517,-40.53614a4.509,4.509 0 0 1 1.74951,-4.73828c16.35352,-11.76172 29.23242,-11.42041 38.2793,1.01611a4.51934,4.51934 0 0 1 0.7915,1.90967a141.54042,141.54042 0 0 1 0.39649,43.9253a4.49088,4.49088 0 0 1 -4.46045,3.87158z"/>
    <path id="svg_9" fill="#fff" d="m628.46581,387.779l-10.94052,0a2.28111,2.28111 0 0 1 0,-4.56221l10.94052,0a2.2811,2.2811 0 0 1 0,4.56221z"/>
    <path id="svg_10" fill="#fff" d="m628.46581,395.779l-10.94052,0a2.28111,2.28111 0 0 1 0,-4.56221l10.94052,0a2.2811,2.2811 0 0 1 0,4.56221z"/>
    <path id="svg_11" fill="#fff" d="m628.46581,403.779l-10.94052,0a2.28111,2.28111 0 0 1 0,-4.56221l10.94052,0a2.2811,2.2811 0 0 1 0,4.56221z"/>
    <path id="svg_13" fill="#f2f2f2" d="m199.50352,541.2761l-1.9835,-27.58851a89.24413,89.24413 0 0 0 -41.89886,-9.39587c20.43166,15.79292 18.79511,47.35761 32.94511,68.95962a53.68056,53.68056 0 0 0 40.02768,23.72162l17.00407,9.78252a89.95172,89.95172 0 0 0 -20.94423,-72.346a86.88849,86.88849 0 0 0 -16.36792,-14.3953c-3.71677,10.67108 -8.78235,21.26192 -8.78235,21.26192z"/>
    <path id="svg_14" fill="#f2f2f2" d="m559.16652,545.2761l1.98354,-27.58851a89.24413,89.24413 0 0 1 41.89886,-9.39587c-20.43166,15.79292 -18.79511,47.35761 -32.94511,68.95962a53.68056,53.68056 0 0 1 -40.02768,23.72162l-17.00411,9.78252a89.95172,89.95172 0 0 1 20.94423,-72.346a86.88849,86.88849 0 0 1 16.36792,-14.3953c3.71677,10.67108 8.78235,21.26192 8.78235,21.26192z"/>
    <circle id="svg_15" fill="#6c63ff" r="19" cy="214.94235" cx="370.33502"/>
    <path id="svg_16" fill="#fff" d="m380.0885,207.02377a1.53662,1.53662 0 0 0 -2.12134,0a62.934,62.934 0 0 0 -10.7818,11.01282q-1.15237,-2.22958 -2.30456,-4.45923c-0.88672,-1.7157 -3.47638,-0.20007 -2.5904,1.51416q1.6854,3.26119 3.37079,6.52234a1.51763,1.51763 0 0 0 2.59046,0a60.74823,60.74823 0 0 1 11.83685,-12.46875a1.50907,1.50907 0 0 0 0,-2.12134z"/>
    <path id="svg_17" fill="#a0616a" d="m285.31971,268.81946l-28.65153,-44.99568l33.17775,-17.76832l8.708,34.32967l61.3554,33.15483a13.26628,13.26628 0 1 1 -7.55,18.04831l-67.03962,-22.76881z"/>
    <path id="svg_18" fill="#3f3d56" d="m235.73523,169.85589c-9.00247,13.21766 22.98989,61.26272 22.98989,61.26272c1.55855,-3.35948 16.457,34.366 18.95241,32.13752c7.09206,-6.3337 18.194,-23.97635 24.36508,-24.7628c3.52912,-0.44977 -8.1849,-25.47849 -8.1849,-25.47849s-5.35362,-14.77941 -12.61819,-33.65869a33.90293,33.90293 0 0 0 -24.626,-21.53548s-11.87581,-1.1824 -20.87829,12.03522z"/>
    <polygon id="svg_19" fill="#a0616a" points="236.175 600.491 249.782 600.49 256.255 548.005 236.172 548.006 236.175 600.491"/>
    <path id="svg_20" fill="#2f2e41" d="m232.70348,596.04818l3.83,-0.00016l14.95309,-6.08107l8.01441,6.08014l0.00108,0a17.07841,17.07841 0 0 1 17.07749,17.07722l0,0.555l-43.8753,0.00162l-0.00077,-17.63275z"/>
    <polygon id="svg_21" fill="#a0616a" points="299.391 600.491 312.998 600.49 319.472 548.005 299.389 548.006 299.391 600.491"/>
    <path id="svg_22" fill="#2f2e41" d="m295.92008,596.04818l3.83005,-0.00016l14.95309,-6.08107l8.0144,6.08014l0.00109,0a17.07841,17.07841 0 0 1 17.07749,17.07722l0,0.555l-43.87531,0.00162l-0.00081,-17.63275z"/>
    <path id="svg_23" fill="#2f2e41" d="m305.28102,313.55177l-88.50724,2.21268c-16.80943,9.13 -17.06468,28.89072 -11.557,52.35232c0,0 -1.8593,13.94482 1.85933,17.66344s5.57793,3.71863 3.71862,10.22622s7.9643,17.13641 6.77112,18.32959s-3.98215,7.70077 -3.98215,7.70077l9.29656,52.99038s6.50759,92.03593 8.3669,93.89524s3.71862,0 1.85931,4.64828s-3.71862,2.789 -1.85931,4.64828a68.471,68.471 0 0 1 4.64828,5.57794l22.47644,0s1.69461,-9.29656 1.69461,-10.22622s1.85931,-6.50759 1.85931,-7.43724s-1.64337,-2.573 -1.64337,-2.573a30.58473,30.58473 0 0 1 -1.1456,-5.79388c0,-1.85931 -5.57793,-73.44281 -5.57793,-73.44281l11.15584,-92.96558l26.96,91.10627s0,79.9504 1.85931,81.80972s1.85931,0.92965 0.92966,4.64827s-4.64828,2.789 -1.85932,5.57794s3.71863,-1.85931 2.789,2.789l-0.92965,4.64828l27.88967,0.39894s3.71863,-7.83619 1.85931,-10.62516s-1.74775,-2.02767 0.52061,-6.59177s3.198,-5.49375 2.26836,-6.42341s-0.92965,-5.8744 -0.92965,-5.8744l-4.64828,-88.9505s-0.92966,-93.89524 -0.92966,-96.6842a9.2729,9.2729 0 0 1 0.77227,-4.1823l0,-3.78568l-3.56124,-13.41413l-12.42411,-32.25328z"/>
    <circle id="svg_24" fill="#a0616a" r="27.4997" cy="102.01522" cx="252.11349"/>
    <path id="svg_25" fill="#3f3d56" d="m265.86335,147.6903c5.92443,3.52211 9.46845,9.9935 11.50286,16.5787a157.109,157.109 0 0 1 6.75135,37.53694l2.14881,38.14144l26.6126,81.21386c-23.06426,19.51583 -109.75939,4.43539 -109.75939,4.43539s-2.66125,-0.887 0,-3.54834s5.252,-0.30353 2.59079,-2.96481s-0.82668,0.30352 0.06041,-2.35777s0,-0.887 -0.88709,-1.77416s6.86736,-8.87092 6.86736,-8.87092l-7.09668,-46.61745l-8.87084,-94.03118c10.64508,-13.3063 32.05365,-21.15028 32.05365,-21.15028l5.5317,-9.95707l27.65851,2.21268l4.83596,11.15297z"/>
    <path id="svg_26" fill="#2f2e41" d="m274.78264,87.40508a12.7442,12.7442 0 0 1 4.52746,6.35983a89.51311,89.51311 0 0 0 0.05892,-12.47873c-0.32412,-2.92035 -2.38014,-3.57724 -4.76083,-4.33839c-2.15,-0.68768 -4.58148,-1.46449 -5.23567,-4.29949c-8.64436,-8.40938 -23.69232,-7.98532 -33.9908,-5.052c-5.66675,1.61413 -8.92743,3.688 -9.21914,4.9029l-0.0605,0.25012l-0.23013,0.11506c-4.3681,2.18405 -5.21839,9.08085 -5.1622,14.48182c0.10642,10.17585 3.61991,21.733 5.59922,22.67188c0.1048,0.0497 0.13127,0.03025 0.17665,-0.00756l0,0c2.98031,-2.38177 6.61644,0.181 8.21436,1.57416a28.6009,28.6009 0 0 1 25.60948,-24.2595a44.87886,44.87886 0 0 0 6.17238,-1.035a12.99489,12.99489 0 0 1 3.15318,-0.41379a8.97355,8.97355 0 0 1 5.14762,1.52869z"/>
    <path id="svg_27" fill="#ffb8b8" d="m445.49731,335.46418l52.89941,-53.71829l13.93717,-42.96322l-22.42808,-9.07171c-11.11041,11.20695 -22.54731,45.51492 -22.54731,45.51492l-36.10559,48.45838c-0.28835,0.10715 -0.57573,0.22044 -0.859,0.35436a10.68681,10.68681 0 1 0 15.1034,11.42556z"/>
    <path id="svg_28" fill="#6c63ff" d="m483.78771,234.62575l28.36321,8.20484l0.10562,-0.02039c10.42569,-2.02431 18.6728,-19.35032 23.755,-33.5285a19.59609,19.59609 0 0 0 -10.61481,-24.55758l0,0a19.63934,19.63934 0 0 0 -20.49519,3.12519l-14.14152,12.17725l-6.97231,34.59919z"/>
    <polygon id="svg_29" fill="#ffb8b8" points="459.521 598.895 444.267 598.894 437.011 540.059 459.523 540.06 459.521 598.895"/>
    <path id="svg_30" fill="#2f2e41" d="m463.41202,593.91464l-4.29344,-0.00017l-16.76237,-6.81683l-8.98411,6.8158l-0.00122,0a19.14478,19.14478 0 0 0 -19.14379,19.14351l0,0.6221l49.184,0.00185l0.00093,-19.76626z"/>
    <polygon id="svg_31" fill="#ffb8b8" points="527.204 598.895 511.95 598.894 504.694 540.059 527.207 540.06 527.204 598.895"/>
    <path id="svg_32" fill="#2f2e41" d="m531.09521,593.91464l-4.29344,-0.00017l-16.76237,-6.81683l-8.98411,6.8158l-0.00127,0a19.14478,19.14478 0 0 0 -19.14378,19.14351l0,0.6221l49.184,0.00185l0.00097,-19.76626z"/>
    <path id="svg_33" fill="#2f2e41" d="m550.46296,345.46953s1.78114,21.37362 -2.6717,41.85668s-4.45284,78.17012 -4.45284,78.17012l-9.79624,112.41141l-29.38874,-2.67171l-8.01511,-187.90979l-28.49817,63.23031l2.67171,8.90568l-3.55877,2.22641s2.6682,17.36608 0.88706,17.36608s-6.234,2.6717 -6.234,2.6717l3.56227,91.72848l-30.2793,-0.89057l-10.68679,-129.13232l11.57738,-73.91713l0.89057,-14.24908l4.00756,0.16475l2.0406,-5.95344l3.74809,-10.24153l104.19642,6.23395z"/>
    <path id="svg_34" fill="#6c63ff" d="m552.0023,349.95889l0.15872,-0.22264c8.47691,-11.86786 -4.27238,-40.386 -6.19528,-44.52012l8.099,-2.62822l-1.82372,-15.50273l-0.86405,-6.91147l6.19006,-6.19l0.01739,-0.15437l3.56227,-31.16987l5.17945,-20.70271a45.45158,45.45158 0 0 0 -12.90063,-44.04789l-11.97222,-11.2882l-14.55,-21.52881l-23.4635,0l-8.04511,15.19618a34.19881,34.19881 0 0 0 -26.46048,34.91649l1.82332,39.85508l-7.138,49.62306l-0.00435,8.98047l-8.03291,8.92742l1.75417,8.77044l-6.11352,2.62l-2.69953,12.59666c-1.11713,1.47413 -8.49083,11.306 -8.49083,13.99383c0,0.40354 0.29787,0.79359 0.93709,1.22632c5.0251,3.40268 32.79968,10.33981 45.09239,5.42081c13.09413,-5.23556 65.14537,2.61865 65.6698,2.69867l0.27047,0.0416z"/>
    <circle id="svg_35" fill="#ffb8b8" r="31.07446" cy="107.06758" cx="512.14059"/>
    <path id="svg_36" fill="#2f2e41" d="m509.1637,138.64518a84.51349,84.51349 0 0 0 14.346,-1.37542c4.68679,-1.07973 15.02744,-9.0757 17.84571,-13.79945l0,0c2.09379,-3.50966 3.3505,-8.93831 4.03626,-12.8741a37.77915,37.77915 0 0 0 -7.37934,-29.81139a11.93568,11.93568 0 0 0 -4.92552,-3.98886c-0.17437,-0.06305 -0.35356,-0.11828 -0.53442,-0.1648a14.72652,14.72652 0 0 1 -7.44025,-4.34242a12.14528,12.14528 0 0 0 -1.24975,-1.22149a18.13963,18.13963 0 0 0 -7.66375,-3.60358c-4.52853,-1.08755 -11.00643,0.27528 -19.25331,4.05409c-4.14323,1.89854 -8.74174,1.3689 -12.28618,0.69532a1.1537,1.1537 0 0 0 -1.07625,0.40006a8.14428,8.14428 0 0 1 -5.47647,2.34861c-1.25845,0.08784 -2.53516,1.86636 -4.07409,4.18236c-0.34918,0.52573 -0.75663,1.1393 -1.05233,1.51371l-0.05914,-0.70315l-0.69227,0.804a9.88285,9.88285 0 0 0 4.87594,15.98065a19.27346,19.27346 0 0 0 3.891,0.51747c0.7949,0.05087 1.6172,0.1035 2.40688,0.21961a14.90011,14.90011 0 0 1 11.31824,9.38009a3.89666,3.89666 0 0 0 5.92827,1.73939a6.43813,6.43813 0 0 1 5.837,-1.21931a4.27384,4.27384 0 0 1 1.94377,2.09336a5.5697,5.5697 0 0 0 2.17641,2.41036c3.23527,1.5637 3.64359,8.85046 2.6539,14.95919c-0.95405,5.88827 -3.02958,10.18369 -5.04727,10.44547c-1.55328,0.20133 -1.72852,0.31657 -1.83419,0.5949l-0.09439,0.24917l0.1809,0.22612a6.36366,6.36366 0 0 0 2.69864,0.29004z"/>
    <path id="svg_37" fill="#ffb8b8" d="m483.38261,237.94906l-14.93666,-19.03188c-15.21464,4.18967 -42.21109,28.25266 -42.21109,28.25266l-55.44155,24.0594a10.6812,10.6812 0 1 0 6.489,17.30681l72.62706,-20.26172l33.47324,-30.32527z"/>
    <path id="svg_38" fill="#6c63ff" d="m479.80261,242.30011l23.56811,-26.27257l1.30851,-18.616a19.64143,19.64143 0 0 0 -9.74716,-18.29829l0,0a19.59508,19.59508 0 0 0 -26.03218,6.17112c-8.32764,12.55068 -17.28635,29.51961 -12.67669,39.08688l0.04671,0.097l23.5327,17.83186z"/>
    <path id="svg_39" fill="#e6e6e6" d="m262.57927,341.04994l-61.25437,-31.37126c-4.357,-2.23144 -5.80026,-8.15017 -3.21717,-13.19382l39.93913,-77.98368c2.58309,-5.04365 8.22931,-7.33153 12.58634,-5.10009l61.25437,31.37126c4.35707,2.23147 5.80031,8.15019 3.21721,13.19385l-39.93912,77.98366c-2.58309,5.04367 -8.22932,7.33154 -12.58639,5.10008z"/>
    <path id="svg_40" fill="#fff" d="m252.11335,326.62823l-41.617,-21.31405c-4.08065,-2.08989 -5.43261,-7.633 -3.01339,-12.35662l33.18076,-64.78755c2.41922,-4.72367 7.70727,-6.86607 11.78791,-4.77618l50.26488,25.743c4.08065,2.08989 5.43223,7.63276 3.013,12.35643l-18.02558,35.19607c-10.77572,21.04032 -17.41408,39.24794 -35.59058,29.9389z"/>
    <path id="svg_41" fill="#6c63ff" d="m272.68974,291.2478l-36.8614,-18.87847a2.30543,2.30543 0 0 1 2.07954,-4.06043l36.8614,18.87847a2.30543,2.30543 0 0 1 -2.07954,4.06043z"/>
    <path id="svg_42" fill="#6c63ff" d="m240.13183,284.70001l-8.41215,-4.30826a2.30557,2.30557 0 0 1 2.07965,-4.06064l8.41215,4.30826a2.30557,2.30557 0 0 1 -2.07965,4.06064z"/>
    <path id="svg_43" fill="#6c63ff" d="m250.92213,300.35289l-23.31111,-11.93871a2.30557,2.30557 0 0 1 2.07965,-4.06064l23.31111,11.93873a2.30557,2.30557 0 0 1 -2.07965,4.06064l0,-0.00002z"/>
    <path id="svg_44" fill="#6c63ff" d="m287.27669,262.76586l-36.8614,-18.87847a2.30543,2.30543 0 0 1 2.07954,-4.06043l36.8614,18.87847a2.30543,2.30543 0 0 1 -2.07954,4.06043z"/>
    <path id="svg_45" fill="#6c63ff" d="m254.71878,256.21807l-8.41215,-4.30826a2.30557,2.30557 0 0 1 2.07965,-4.06064l8.41214,4.30826a2.30557,2.30557 0 0 1 -2.07964,4.06064z"/>
    <path id="svg_46" fill="#6c63ff" d="m265.50908,271.87095l-23.31106,-11.93877a2.30557,2.30557 0 0 1 2.07965,-4.06064l23.31111,11.93873a2.30557,2.30557 0 0 1 -2.07965,4.06064l-0.00005,0.00004z"/>
    <path id="svg_47" fill="#a0616a" d="m211.82039,273.15761l-13.83816,-51.51724l36.97936,-7.0002l-1.98857,35.36101l48.58778,50.02955a13.26627,13.26627 0 1 1 -12.61527,14.95323l-57.12514,-41.82635z"/>
    <path id="svg_48" fill="#3f3d56" d="m194.19816,163.87877c-12.55213,9.90933 3.55855,65.33753 3.55855,65.33753c2.49434,-2.73742 5.39291,37.7197 8.44176,36.34213c8.66512,-3.91519 24.5472,-17.41617 30.67005,-16.31569c3.50155,0.62935 -0.167,-26.76038 -0.167,-26.76038s-0.67475,-15.70467 -1.94289,-35.89361a33.90293,33.90293 0 0 0 -17.03381,-27.92966s-10.97452,-4.68961 -23.52666,5.21968z"/>
    <path id="svg_49" fill="#e6e6e6" d="m403.05393,387.50418l-33.42618,-15.78416a5.231,5.231 0 0 1 -2.87,-3.54375a5.12352,5.12352 0 0 1 0.95213,-4.36489a100.58,100.58 0 0 0 19.41281,-42.25364a5.19671,5.19671 0 0 1 5.09238,-4.19039c17.04776,0.058 29.78887,6.28279 37.868,18.49922a5.2612,5.2612 0 0 1 0.68837,4.37574a164.52691,164.52691 0 0 1 -21.1081,45.4065a5.21976,5.21976 0 0 1 -6.60941,1.85537z"/>
    <path id="svg_50" fill="#fff" d="m412.88702,365.36606l-25.55814,-12.06878a2.65133,2.65133 0 1 1 2.26422,-4.79495l25.55809,12.06878a2.65133,2.65133 0 1 1 -2.26422,4.79495l0.00005,0z"/>
    <path id="svg_51" fill="#fff" d="m416.85737,356.95793l-25.5581,-12.06875a2.65133,2.65133 0 0 1 2.26422,-4.79495l25.5581,12.06877a2.65133,2.65133 0 0 1 -2.26422,4.795l0,-0.00007z"/>
    <path id="svg_52" fill="#f2f2f2" d="m382.70637,93.01508l-2.37941,0.26061c-10.60747,-41.68436 -31.16817,-70.56285 -59.46151,-83.514c-35.96775,-16.46321 -80.44329,-5.40786 -125.23408,31.13c-45.01841,36.7244 -84.87155,94.733 -112.21718,163.34285l-2.30844,-1.05643c27.46571,-68.90948 67.52341,-127.1984 112.7941,-164.12694c45.4977,-37.11521 90.881,-48.25163 127.78958,-31.35736c29.10481,13.32227 50.20377,42.82599 61.01694,85.32127z"/>
    <path id="svg_53" fill="#f2f2f2" d="m120.23202,147.3036c-6.22164,13.10661 -12.13943,26.68513 -17.58916,40.358c-31.36052,78.68222 -47.25268,159.03767 -45.954,232.38347l-2.451,-0.26154c-1.3,-73.61855 14.6379,-154.25079 46.09659,-233.17836c5.46537,-13.71145 11.4,-27.32833 17.63957,-40.47193l2.258,1.17036z"/>
    <path id="svg_54" fill="#f2f2f2" d="m119.05559,201.36733c-6.22164,13.1066 -12.13943,26.68513 -17.58916,40.358c-31.36052,78.68222 -47.25268,159.03767 -45.954,232.38347l-2.451,-0.26154c-1.3,-73.61855 14.6379,-154.25079 46.09659,-233.17837c5.46537,-13.71144 11.4,-27.32832 17.63957,-40.47193l2.258,1.17037z"/>
    <ellipse id="svg_55" transform="rotate(-56.364 -400.121 238.165)" fill="#ccc" ry="10.19466" rx="8.8567" cy="595.88442" cx="-134.76453"/>
    <ellipse id="svg_56" transform="rotate(-56.364 -265.202 784.117)" fill="#ccc" ry="10.19466" rx="8.8567" cy="1288.90518" cx="577.09681"/>
  </g>
</svg>
